<svg xmlns="http://www.w3.org/2000/svg" width="158" height="23" viewBox="0 0 158 23"><defs><clipPath id="uuw9a"><path fill="#fff" d="M20 11.5C20 5.75 25.75 0 31.5 0h95c5.75 0 11.5 5.75 11.5 11.5S132.25 23 126.5 23h-95C25.75 23 20 17.25 20 11.5z"/></clipPath></defs><g><g><g><g><path fill="#fff" d="M20 11.5C20 5.75 25.75 0 31.5 0h95c5.75 0 11.5 5.75 11.5 11.5S132.25 23 126.5 23h-95C25.75 23 20 17.25 20 11.5z"/><path fill="none" stroke="#707070" stroke-miterlimit="50" d="M20 11.5C20 5.75 25.75 0 31.5 0h95c5.75 0 11.5 5.75 11.5 11.5v0c0 5.75-5.75 11.5-11.5 11.5h-95C25.75 23 20 17.25 20 11.5z" clip-path="url(&quot;#uuw9a&quot;)"/></g><g><path fill="none" stroke="#707070" stroke-miterlimit="50" stroke-width=".5" d="M20.5 11.5H.5"/></g><g><path fill="none" stroke="#707070" stroke-miterlimit="50" stroke-width=".5" d="M157.5 11.5h-20"/></g></g></g></g></svg>