<svg xmlns="http://www.w3.org/2000/svg" width="42" height="49" viewBox="0 0 42 49"><defs><linearGradient id="ypmia" x1="21" x2="21" y1="0" y2="49" gradientUnits="userSpaceOnUse"><stop offset="0" stop-color="#f6f6f6"/><stop offset="1" stop-color="#d5d5d5"/></linearGradient><clipPath id="ypmib"><path fill="#fff" d="M0 0h21c10.5 0 21 10.5 21 21v7c0 10.5-10.5 21-21 21H0z"/></clipPath><clipPath id="ypmic"><path d="M14 32V17h15v15z"/></clipPath></defs><g><g><path fill="url(#ypmia)" d="M0 0h21c10.5 0 21 10.5 21 21v7c0 10.5-10.5 21-21 21H0z"/><path fill="none" stroke="#cbcbcb" stroke-miterlimit="20" d="M0 0v0h21c10.5 0 21 10.5 21 21v7c0 10.5-10.5 21-21 21H0v0z" clip-path="url(&quot;#ypmib&quot;)"/></g><g><g><path fill-opacity='0' d="M14 32V17h15v15z"/></g><g clip-path="url(#ypmic)"><g><g><g><path fill="#989898" d="M24.723 23.152a.586.586 0 1 1 1.172 0 .586.586 0 0 1-1.172 0z"/></g><g><path fill="#989898" d="M26.656 18.172h-.761v-.586a.586.586 0 1 0-1.172 0v.586h-2.666v-.586a.586.586 0 1 0-1.172 0v.586h-2.637v-.586a.586.586 0 1 0-1.172 0v.586h-.732A2.346 2.346 0 0 0 14 20.516v9.14A2.346 2.346 0 0 0 16.344 32h4.482a.586.586 0 1 0 0-1.172h-4.482a1.173 1.173 0 0 1-1.172-1.172v-9.14c0-.647.526-1.172 1.172-1.172h.732v.586a.586.586 0 1 0 1.172 0v-.586h2.637v.586a.586.586 0 1 0 1.172 0v-.586h2.666v.586a.586.586 0 1 0 1.172 0v-.586h.761c.646 0 1.172.525 1.172 1.172v3.34a.586.586 0 1 0 1.172 0v-3.34a2.346 2.346 0 0 0-2.344-2.344z"/></g><g><path fill="#989898" d="M25.455 30.828a2.376 2.376 0 0 1-2.373-2.373 2.376 2.376 0 0 1 2.373-2.373 2.376 2.376 0 0 1 2.373 2.373 2.376 2.376 0 0 1-2.373 2.373zm0-5.918a3.549 3.549 0 0 0-3.545 3.545A3.549 3.549 0 0 0 25.455 32 3.549 3.549 0 0 0 29 28.455a3.549 3.549 0 0 0-3.545-3.545z"/></g><g><path fill="#989898" d="M26.305 27.87h-.264v-.616a.586.586 0 1 0-1.172 0v1.201c0 .324.262.586.586.586h.85a.586.586 0 1 0 0-1.172z"/></g><g><path fill="#989898" d="M22.174 23.152a.586.586 0 1 1 1.172 0 .586.586 0 0 1-1.172 0z"/></g><g><path fill="#989898" d="M19.625 25.701a.586.586 0 1 1 1.172 0 .586.586 0 0 1-1.172 0z"/></g><g><path fill="#989898" d="M17.076 23.152a.586.586 0 1 1 1.172 0 .586.586 0 0 1-1.172 0z"/></g><g><path fill="#989898" d="M17.076 25.701a.586.586 0 1 1 1.172 0 .586.586 0 0 1-1.172 0z"/></g><g><path fill="#989898" d="M17.076 28.25a.586.586 0 1 1 1.172 0 .586.586 0 0 1-1.172 0z"/></g><g><path fill="#989898" d="M19.625 28.25a.586.586 0 1 1 1.172 0 .586.586 0 0 1-1.172 0z"/></g><g><path fill="#989898" d="M19.625 23.152a.586.586 0 1 1 1.172 0 .586.586 0 0 1-1.172 0z"/></g></g></g></g></g></g></svg>