<svg xmlns="http://www.w3.org/2000/svg" width="26" height="24" viewBox="0 0 26 24"><g><g><g><path fill="#656565" d="M25 16h-2c-.6 0-1 .4-1 1v2.5c0 .3-.2.5-.5.5h-17c-.3 0-.5-.2-.5-.5V17c0-.6-.4-1-1-1H1c-.6 0-1 .4-1 1v6c0 .6.4 1 1 1h24c.6 0 1-.4 1-1v-6c0-.6-.4-1-1-1z"/></g><g><path fill="#656565" d="M12.3 15.7c.2.2.5.3.7.3.2 0 .5-.1.7-.3l6-6c.2-.2.3-.4.3-.7 0-.3-.1-.5-.3-.7l-1.4-1.4c-.2-.2-.4-.3-.7-.3-.3 0-.5.1-.7.3l-1 1c-.3.3-.9.1-.9-.4V1c0-.6-.4-1-1-1h-2c-.6 0-1 .4-1 1v6.6c0 .4-.5.7-.9.4l-1-1c-.2-.2-.4-.3-.7-.3-.3 0-.5.1-.7.3L6.3 8.4c-.2.2-.3.4-.3.7 0 .3.1.5.3.7z"/></g></g></g></svg>