<svg xmlns="http://www.w3.org/2000/svg" width="20" height="18" viewBox="0 0 20 18"><g><g><g>
<path fill="#919191" d="M10.217 3.747a.375.375 0 1 0 0 .75.375.375 0 0 0 0-.75z"/></g><g>
<path fill="#919191" d="M3.998 10.49a.375.375 0 1 0 0-.75.375.375 0 0 0 0 .75z"/></g><g>
<path fill="#919191" d="M17.741 8.753a.376.376 0 0 0-.092.158 3.03 3.03 0 0 0 .229 2.23 3.38 3.38 0 0 1-1.682-.998.375.375 0 0 0-.415-.095c-.585.233-1.419.394-2.207.433-.11-1.417-.816-2.748-2.024-3.737h4.887a.375.375 0 1 0 0-.75h-6.038a6.988 6.988 0 0 0-2.789-.738C7.826 2.74 10.257.75 13.215.75c3.168 0 5.844 2.23 5.844 4.87 0 1.146-.468 2.259-1.318 3.134zM7.22 15.736c-.884 0-1.892-.174-2.567-.442a.375.375 0 0 0-.415.095 3.38 3.38 0 0 1-1.681.998 3.03 3.03 0 0 0 .228-2.23.374.374 0 0 0-.092-.159c-.85-.875-1.318-1.988-1.318-3.133 0-2.64 2.677-4.87 5.845-4.87 2.992 0 5.62 2.08 5.62 4.87 0 2.686-2.521 4.87-5.62 4.87zM13.215 0C9.842 0 7.073 2.326 6.859 5.255c-3.212.16-6.233 2.477-6.233 5.61 0 1.31.518 2.578 1.461 3.583.187.77-.04 1.585-.602 2.147a.375.375 0 0 0 .265.64 4.133 4.133 0 0 0 2.863-1.158c.746.254 1.718.408 2.607.408 3.373 0 6.14-2.325 6.355-5.254.785-.034 1.6-.18 2.246-.4a4.133 4.133 0 0 0 2.864 1.158.375.375 0 0 0 .264-.64 2.279 2.279 0 0 1-.602-2.146c.943-1.005 1.462-2.274 1.462-3.583 0-3.255-3.254-5.62-6.594-5.62z"/></g><g><path fill="#919191" d="M10.217 9.741h-4.72a.375.375 0 1 0 0 .75h4.72a.375.375 0 1 0 0-.75z"/></g><g>
<path fill="#919191" d="M10.217 11.99h-6.22a.375.375 0 1 0 0 .748h6.22a.375.375 0 1 0 0-.749z"/></g><g>
<path fill="#919191" d="M16.437 3.747h-4.721a.375.375 0 1 0 0 .749h4.72a.375.375 0 1 0 0-.75z"/></g></g></g></svg>