<svg xmlns="http://www.w3.org/2000/svg" width="19" height="19" viewBox="0 0 19 19"><g><g><g><g><path fill="#818181" d="M13.86 11.85c0 .442-.357.47-.798.47H6.601c-.441 0-.798-.028-.798-.47v-.075c0-.317.186-.589.454-.717L6.51 8.87c0-1.6 1.132-2.936 2.639-3.251V4.77a.683.683 0 0 1 1.366 0v.849a3.323 3.323 0 0 1 2.639 3.251l.253 2.187c.268.129.454.4.454.717zM9.833 14.24a1.192 1.192 0 0 1-1.193-1.193h2.385c0 .66-.534 1.193-1.192 1.193zm0-14.245a9.172 9.172 0 1 0 0 18.345 9.172 9.172 0 0 0 0-18.345z"/></g></g></g></g></svg>