<svg xmlns="http://www.w3.org/2000/svg" width="13" height="13" viewBox="0 0 13 13"><g><g><path fill="#818181" d="M1.811 11.19c-.13-.116-.123-.368.017-.658L0 9.34c.195-.197.39-.322.713-.364l2.124-.283c.16-.02.317-.033.463-.061.233-.355.955-1.254 1.315-1.733l.96-1.268L.932 4.232c-.484-.146.43-1.23.87-1.111l6.121.161L9.465 1.74c1.208-1.205 2.83-1.767 3.196-1.4.367.369-.195 1.988-1.4 3.196L9.718 5.078l.16 6.121c.12.44-.964 1.352-1.108.869l-1.4-4.643-1.27.96c-.476.36-1.377 1.082-1.732 1.317-.03.146-.041.3-.062.46l-.28 2.125A1.132 1.132 0 0 1 3.66 13L2.47 11.17c-.29.14-.543.15-.658.02z"/></g></g></svg>