<svg xmlns="http://www.w3.org/2000/svg" width="179" height="31" viewBox="0 0 179 31"><g><g><path fill="none" stroke="#fff" stroke-dasharray="2 2" stroke-miterlimit="50" stroke-width=".5" d="M172.5 16.5h-64"/></g><g><g><path fill="none" stroke="#fff" stroke-miterlimit="50" d="M6.53 9.62a2.978 2.978 0 1 1 0-5.956 2.978 2.978 0 0 1 0 5.956zm0-8.507A5.53 5.53 0 0 0 1 6.644c0 .846.233 1.632.536 2.367C2.842 12.174 6.529 16 6.529 16s3.684-3.826 4.99-6.989c.303-.736.54-1.52.54-2.367a5.527 5.527 0 0 0-5.53-5.53z"/></g><g><path fill="none" stroke="#fff" stroke-miterlimit="50" d="M3 6.5a3.5 3.5 0 1 1 7 0 3.5 3.5 0 0 1-7 0z"/></g></g><g><g><path fill="none" stroke="#fff" stroke-miterlimit="50" d="M72.955 15.94c-.028-.404.397-.806 1.105-1.049l-1.066-4.97c.643 0 1.17.117 1.773.582l3.97 3.042c.296.233.577.469.864.664.966-.196 3.63-.477 5.008-.666l3.662-.492v0l-5.377-9.957c-.559-1.038 2.724-1.305 3.256-.385l9.84 10.37v0l5.075.02c3.967.02 7.563 1.776 7.568 2.982.002 1.21-3.578 2.935-7.545 2.922l-5.074-.02v0l-9.76 10.289c-.523.919-3.805.623-3.251-.408l5.291-9.915v0l-3.666-.52c-1.376-.198-4.046-.503-5.016-.704-.288.19-.562.424-.858.651l-3.941 3.016c-.602.458-1.128.57-1.771.565l1.03-4.964c-.71-.248-1.141-.65-1.117-1.054z"/></g></g><g><g><path fill="none" stroke="#fff" stroke-miterlimit="50" d="M172.53 9.62a2.978 2.978 0 1 1 0-5.956 2.978 2.978 0 0 1 0 5.956zm0-8.507A5.53 5.53 0 0 0 167 6.644c0 .846.233 1.632.536 2.367 1.306 3.163 4.993 6.989 4.993 6.989s3.684-3.826 4.99-6.989c.303-.736.54-1.52.54-2.367a5.527 5.527 0 0 0-5.53-5.53z"/></g><g><path fill="none" stroke="#fff" stroke-miterlimit="50" d="M169 6.5a3.5 3.5 0 1 1 7 0 3.5 3.5 0 0 1-7 0z"/></g></g><g><path fill="none" stroke="#fff" stroke-dasharray="2 2" stroke-miterlimit="50" stroke-width=".5" d="M70.5 16.5h-64"/></g></g></svg>