<svg xmlns="http://www.w3.org/2000/svg" width="16" height="16" viewBox="0 0 16 16"><g><g><path fill="#818181" d="M13.08 13.695a7.597 7.597 0 0 1-5.385 2.23 7.597 7.597 0 0 1-5.385-2.23A7.586 7.586 0 0 1 .082 8.313c0-2.102.85-4.007 2.228-5.385A7.597 7.597 0 0 1 7.695.698c2.102 0 4.005.852 5.384 2.23a7.592 7.592 0 0 1 2.229 5.385c0 2.102-.851 4.005-2.229 5.382zM2.496 4.272c.321-.002.647.013.97.04.025-.376.072-.762.135-1.157a6.669 6.669 0 0 0-1.105 1.117zm-.674 6.416c-.095-.01-.19-.023-.282-.036.053.141.11.278.173.412.033-.126.069-.252.109-.376zm11.271-1.424c.338.403.617.802.827 1.187a6.55 6.55 0 0 0 .355-2.138V8.24c-.302.374-.699.717-1.182 1.023zm-.344-.386c.695-.427 1.192-.922 1.466-1.475a6.566 6.566 0 0 0-.731-2.228c-.34-.105-.7-.185-1.074-.237a1.362 1.362 0 0 0-.006-.52c.233.03.462.07.685.12A6.574 6.574 0 0 0 9.507 1.98c.466.392.857.841 1.17 1.335a1.399 1.399 0 0 0-.473.212 5.323 5.323 0 0 0-1.95-1.775 6.54 6.54 0 0 0-4.047.977 11.776 11.776 0 0 0-.227 1.638 13.88 13.88 0 0 1 3.192.833c.794-.33 1.617-.567 2.434-.705a1.423 1.423 0 0 0 .021.517 10.64 10.64 0 0 0-1.773.474 16.225 16.225 0 0 1 3.276 1.938 6.68 6.68 0 0 0-.016-1.312 1.44 1.44 0 0 0 .502-.13c.073.596.069 1.21-.009 1.823.422.35.805.712 1.143 1.073zm-.456.254c-.24-.25-.502-.498-.786-.744-.084.412-.203.82-.354 1.218a8.87 8.87 0 0 0 1.14-.474zM1.36 10.11zm0 0c.214.029.426.054.638.08l.044-.114c.235-.57.534-1.1.882-1.59.114.128.252.235.408.315-.317.445-.59.928-.805 1.447.929.095 1.815.145 2.657.156a7.844 7.844 0 0 1-.916-1.475c.173-.035.334-.103.477-.195.254.527.563 1.012.922 1.453.061.072.122.145.185.217 1.613-.024 3.043-.196 4.257-.494.138-.034.273-.07.405-.105a7.32 7.32 0 0 0 .542-1.791 15.699 15.699 0 0 0-2.001-1.349 15.513 15.513 0 0 0-1.878-.909 9.874 9.874 0 0 0-1.938 1.12 1.419 1.419 0 0 0-.32-.404c.467-.344.962-.649 1.479-.913l.11-.055a13.08 13.08 0 0 0-2.553-.624 9.9 9.9 0 0 0 .055 1.237h-.03c-.167 0-.329.028-.478.082-.048-.44-.07-.899-.059-1.373a10.23 10.23 0 0 0-1.317-.03 6.557 6.557 0 0 0-1.016 3.516c0 .622.088 1.226.25 1.798zm7.27 3.7a1.115 1.115 0 1 1 .005-2.23 1.115 1.115 0 0 1-.005 2.23zM2.867 7.538a1.116 1.116 0 1 1 2.231.001 1.116 1.116 0 0 1-2.231-.001zm7.03-2.844c0-.615.498-1.113 1.116-1.113a1.114 1.114 0 1 1-1.115 1.113zm-2.202 10.2c1.396 0 2.69-.434 3.755-1.176a11.958 11.958 0 0 1-1.008-.174c-.196-.044-.387-.09-.576-.143.084-.147.143-.31.17-.487.17.046.343.088.517.128.477.103.97.18 1.478.223a6.58 6.58 0 0 0 1.632-2.172c-.197-.493-.546-1.029-1.014-1.573a9.606 9.606 0 0 1-1.766.712 8.007 8.007 0 0 1-1.078 1.662 1.43 1.43 0 0 0-.363-.366c.071-.086.14-.172.208-.26a7.93 7.93 0 0 0 .558-.853c-1.121.273-2.419.445-3.868.491a7.8 7.8 0 0 0 1.176.91c-.107.136-.189.29-.241.458a8.35 8.35 0 0 1-1.647-1.355 29.71 29.71 0 0 1-3.284-.172 7.47 7.47 0 0 0-.257 1.014A6.562 6.562 0 0 0 4.75 14.2a8.473 8.473 0 0 0 2.586-.924c.07.16.17.303.291.425a8.715 8.715 0 0 1-2.062.842 6.555 6.555 0 0 0 2.13.353z"/></g></g></svg>