<svg xmlns="http://www.w3.org/2000/svg" width="21" height="18" viewBox="0 0 21 18"><g><g><g><g><g><path fill="#818181" d="M17.24 8.2c-.772 0-1.41-.638-1.41-1.41 0-.77.638-1.41 1.41-1.41.77 0 1.41.64 1.41 1.41 0 .772-.64 1.41-1.41 1.41zm-4.927 0c-.77 0-1.41-.638-1.41-1.41 0-.77.64-1.41 1.41-1.41.771 0 1.41.64 1.41 1.41 0 .772-.639 1.41-1.41 1.41zm-4.945 0c-.77 0-1.41-.638-1.41-1.41 0-.77.64-1.41 1.41-1.41.771 0 1.41.64 1.41 1.41 0 .772-.62 1.41-1.41 1.41zM19.308.662H5.205c-.846 0-1.523.696-1.523 1.523v8.762c0 .846.696 1.523 1.523 1.523h9.72l2.2 2.219a.47.47 0 0 0 .339.15.485.485 0 0 0 .489-.489v-1.88h1.353c.847 0 1.523-.696 1.523-1.523V2.184c0-.846-.695-1.523-1.523-1.523z"/></g><g fill="#818181"><path d="M2.818 10.984v-2.99H1.276c-.545 0-.996.451-.996.997v5.753a.989.989 0 0 0 .996 1.034h.884v1.241c0 .17.15.32.32.32.094 0 .169-.038.225-.094l1.448-1.448h6.393c.545 0 .996-.451.996-.997v-1.429H5.206a2.391 2.391 0 0 1-2.388-2.387z"/></g></g></g></g></g></svg>