<svg xmlns="http://www.w3.org/2000/svg" width="48" height="30" viewBox="0 0 48 30"><g><g><path fill="#ff6200" d="M45.059 12.88a14.964 14.964 0 0 0-2.014-1.026c-.468.218-1.19.361-2.09.361-1.171 0-1.26 1.724.123 1.765 1.613.049 3.328-.486 3.98-1.1zm-10.3-.12a1.126 1.126 0 1 0-2.25 0 1.126 1.126 0 0 0 2.25 0zm-3.827 0a1.125 1.125 0 1 0-2.25 0 1.125 1.125 0 0 0 2.25 0zm-3.827 0a1.125 1.125 0 1 0-2.25.002 1.125 1.125 0 0 0 2.25-.001zm-3.828 0a1.125 1.125 0 1 0-2.25 0 1.125 1.125 0 0 0 2.25 0zm-3.826 0a1.125 1.125 0 1 0-2.25.002 1.125 1.125 0 0 0 2.25-.001zm28.546 1.497c-.19 1.605-4.068 2.418-6.146 2.418h-8.937L13.5 29.333l-3.6.003s5.126-6.462 6.094-7.778c.895-1.219 2.313-2.819 2.32-4.883h-1.638c-4.478 0-10.591-2.888-14.16-4.254-2.159-.827-1.834-3.079-.023-3.079h.032L-.004.678H2.77S6.1 5.018 7.248 6.394c1.533 1.84 3.45 2.803 6.306 2.948h23.551c1.662 0 3.304.319 4.79.798 2.676.895 4.496 2.057 5.52 3.068.454.448.612.783.582 1.05zm-29.765-6.41c-.636-1.447-3.7-7.712-3.7-7.712l3.598.003 9.48 7.709z"/></g></g></svg>