<svg xmlns="http://www.w3.org/2000/svg" width="27" height="19" viewBox="0 0 27 19"><g><g><path fill="#919191" d="M19.718 14.987c.22 0 .426.042.615.121.198.08.375.198.524.347v.004a1.601 1.601 0 0 1 0 2.273v.003c-.15.15-.326.268-.524.347-.189.08-.396.122-.615.122-.219 0-.426-.042-.615-.122a1.517 1.517 0 0 1-.52-.347l-.003-.003a1.6 1.6 0 0 1 0-2.273v-.004c.149-.149.326-.267.523-.347.19-.079.396-.121.615-.121zm2.682-.38c.155 0 .304.03.442.084.14.058.267.147.374.253.106.107.195.234.253.374a1.203 1.203 0 0 1 0 .89c-.058.14-.147.267-.253.374a1.215 1.215 0 0 1-.374.252 1.187 1.187 0 0 1-.442.086h-.402l.019-.162v-.003l.006-.055v-.003l.003-.054v-.113c0-.347-.086-.633-.198-.865a3.017 3.017 0 0 0-.344-.53l-.003-.002c-.098-.131-.17-.22-.17-.32 0-.073.018-.122.06-.152.046-.04.128-.055.247-.055h.782zM1.56 3.014a1.136 1.136 0 0 1-.374-.25 1.15 1.15 0 0 1-.27-1.215l.005-.012v-.006l.013-.024v-.006a1.172 1.172 0 0 1 .62-.621 1.153 1.153 0 0 1 .883 0c.433.176.82.359 1.166.548.35.191.667.392.947.602.268.201.508.408.727.627.217.22.411.45.588.694l.021.03h19.792v.01l.055.018.052.016a.75.75 0 0 1 .277.155c.082.07.15.155.2.25.047.097.077.2.086.31a.875.875 0 0 1-.036.316l-1.903 5.796c-.076.238-.17.466-.28.68-.113.218-.24.428-.38.623-.14.198-.299.38-.47.551-.17.17-.352.326-.547.469-.195.14-.399.265-.615.374a4.75 4.75 0 0 1-.67.274l-.024.006a4.81 4.81 0 0 1-1.419.22H8.976v-.007l-.08.007a.831.831 0 0 0-.398.124.92.92 0 0 0-.301.302.734.734 0 0 0-.058.121.427.427 0 0 0-.021.231c.009.034.02.068.036.098.049.08.131.15.259.198.106.04.25.07.426.08.122.005.204.03.25.07.04.036.057.09.051.167a.34.34 0 0 1-.051.146 1.9 1.9 0 0 1-.128.188 2.802 2.802 0 0 0-.332.524c-.11.225-.192.502-.192.831l.003.082v.006l.003.07v.016l.015.188-.185-.03a3.69 3.69 0 0 1-.347-.07 2.687 2.687 0 0 1-.326-.095l-.012-.006a2.748 2.748 0 0 1-.57-.27 2.506 2.506 0 0 1-.63-.552 2.268 2.268 0 0 1-.387-.715 2.44 2.44 0 0 1-.06-1.178c.024-.134.061-.268.107-.405.033-.094.073-.188.118-.283.043-.094.092-.192.146-.283.043-.076.092-.152.144-.228.051-.076.103-.152.16-.225l.025-.03-.012-.04a56.02 56.02 0 0 1-.874-2.855l-.24-.871a40.22 40.22 0 0 0-.597-2.025v-.003c-.204-.6-.423-1.123-.697-1.583-.27-.45-.6-.843-1.026-1.19-.426-.35-.946-.654-1.604-.928l-.03-.012zm10.892 11.591h5.586a.21.21 0 0 1 .192.122.21.21 0 0 1-.025.225 2.69 2.69 0 0 0-.581 1.967h-4.758a2.756 2.756 0 0 0-.584-1.97.215.215 0 0 1 .17-.344zm9.12-6.688h1.878l.917-2.794.03-.097h-2.825zm-3.71 0h2.715V5.027H17.86zm-3.708 0h2.715V5.027h-2.715zm-3.708 0h2.715V5.027h-2.715zm-2.749 0h1.757V5.027H6.769l.04.1c.197.493.368.992.52 1.495.131.429.25.861.368 1.296zm1.757.993H7.962c.125.472.256.94.399 1.41.15.483.314.964.502 1.436l.022.049h.569zm3.707 0h-2.715v2.895h2.715zm3.708 0h-2.715v2.895h2.715zm3.708 0H17.86v2.895h2.143c.125 0 .25-.01.375-.025.064-.006.13-.015.198-.027V8.91zm2.548 0h-1.553v2.466c.064-.037.128-.08.186-.122l.006-.003.003-.003c.125-.119.24-.229.35-.341.107-.11.21-.223.298-.335.089-.116.17-.238.244-.372a2.98 2.98 0 0 0 .192-.453zm-12.368 6.076c.219 0 .426.042.615.121.197.08.374.198.523.347v.004a1.601 1.601 0 0 1 0 2.273l-.021.025a1.59 1.59 0 0 1-.502.325 1.603 1.603 0 0 1-1.753-.35l-.022-.02a1.564 1.564 0 0 1-.329-.5 1.655 1.655 0 0 1-.122-.618c0-.216.046-.426.122-.615.082-.195.201-.371.347-.52l.003-.004a1.609 1.609 0 0 1 1.138-.469z"/></g></g></svg>