<svg xmlns="http://www.w3.org/2000/svg" width="18" height="16" viewBox="0 0 18 16"><g><g><path fill="#ff6200" d="M17.824 5.274L12.75.2a.61.61 0 0 0-.446-.189.61.61 0 0 0-.445.189.61.61 0 0 0-.189.445v2.537H9.45c-4.71 0-7.6 1.331-8.67 3.993-.35.885-.525 1.985-.525 3.3 0 1.096.42 2.586 1.259 4.469a23.402 23.402 0 0 0 .237.535c.04.085.083.158.13.217.079.113.171.17.277.17a.29.29 0 0 0 .233-.1.37.37 0 0 0 .084-.247c0-.06-.008-.147-.025-.263a2.05 2.05 0 0 1-.025-.233c-.033-.449-.05-.856-.05-1.219 0-.667.059-1.265.174-1.793.116-.529.276-.986.48-1.372.206-.387.47-.72.793-1.001.324-.28.672-.51 1.046-.689a5.667 5.667 0 0 1 1.318-.42 12.565 12.565 0 0 1 1.526-.214c.512-.04 1.091-.06 1.739-.06h2.22v2.537c0 .172.062.32.187.446a.61.61 0 0 0 .446.188.61.61 0 0 0 .446-.188l5.073-5.073a.61.61 0 0 0 .189-.446.61.61 0 0 0-.188-.446z"/></g></g></svg>